<?xml version="1.0" encoding="UTF-8" standalone="no"?>
<!DOCTYPE svg PUBLIC "-//W3C//DTD SVG 1.1//EN"
 "http://www.w3.org/Graphics/SVG/1.1/DTD/svg11.dtd">
<!-- Generated by graphviz version 2.40.1 (20161225.0304)
 -->
<!-- Title: %3 Pages: 1 -->
<svg width="1274pt" height="176pt"
 viewBox="0.00 0.00 1273.97 176.17" xmlns="http://www.w3.org/2000/svg" xmlns:xlink="http://www.w3.org/1999/xlink">
<g id="graph0" class="graph" transform="scale(1 1) rotate(0) translate(4 172.1665)">
<title>%3</title>
<polygon fill="#ffffff" stroke="transparent" points="-4,4 -4,-172.1665 1269.9691,-172.1665 1269.9691,4 -4,4"/>
<!-- R -->
<g id="node1" class="node">
<title>R</title>
<ellipse fill="none" stroke="#000000" cx="694.7229" cy="-150.1665" rx="104.7816" ry="18"/>
<text text-anchor="middle" x="694.7229" y="-146.4665" font-family="Times,serif" font-size="14.00" fill="#000000">Imperative Programming</text>
</g>
<!-- M -->
<g id="node2" class="node">
<title>M</title>
<ellipse fill="none" stroke="#000000" cx="111.7229" cy="-48.0833" rx="111.9462" ry="37.4533"/>
<text text-anchor="middle" x="111.7229" y="-59.3833" font-family="Times,serif" font-size="14.00" fill="#000000">Modulariation</text>
<text text-anchor="middle" x="111.7229" y="-44.3833" font-family="Times,serif" font-size="14.00" fill="#000000"> &#160;&#160;Functions/Subroutines</text>
<text text-anchor="middle" x="111.7229" y="-29.3833" font-family="Times,serif" font-size="14.00" fill="#000000"> &#160;&#160;Modules</text>
</g>
<!-- R&#45;&gt;M -->
<g id="edge1" class="edge">
<title>R&#45;&gt;M</title>
<path fill="none" stroke="#000000" d="M592.8572,-145.9183C498.3139,-140.1823 354.2798,-126.8559 232.7229,-96.1665 217.9802,-92.4444 202.631,-87.3587 188.012,-81.8828"/>
<polygon fill="#000000" stroke="#000000" points="189.1143,-78.5569 178.5243,-78.2384 186.6043,-85.0915 189.1143,-78.5569"/>
</g>
<!-- V -->
<g id="node3" class="node">
<title>V</title>
<ellipse fill="none" stroke="#000000" cx="425.7229" cy="-48.0833" rx="183.6957" ry="37.4533"/>
<text text-anchor="middle" x="425.7229" y="-59.3833" font-family="Times,serif" font-size="14.00" fill="#000000">Variables</text>
<text text-anchor="middle" x="425.7229" y="-44.3833" font-family="Times,serif" font-size="14.00" fill="#000000"> &#160;&#160;Simple datatypes (int, float, bool, string)</text>
<text text-anchor="middle" x="425.7229" y="-29.3833" font-family="Times,serif" font-size="14.00" fill="#000000"> &#160;&#160;Complex datatypes (lists, dictionaries)</text>
</g>
<!-- R&#45;&gt;V -->
<g id="edge2" class="edge">
<title>R&#45;&gt;V</title>
<path fill="none" stroke="#000000" d="M651.5034,-133.7651C616.7742,-120.5856 566.6714,-101.5721 522.4824,-84.8027"/>
<polygon fill="#000000" stroke="#000000" points="523.4504,-81.4265 512.8592,-81.1508 520.9668,-87.9711 523.4504,-81.4265"/>
</g>
<!-- X -->
<g id="node4" class="node">
<title>X</title>
<ellipse fill="none" stroke="#000000" cx="694.7229" cy="-48.0833" rx="67.3507" ry="37.4533"/>
<text text-anchor="middle" x="694.7229" y="-59.3833" font-family="Times,serif" font-size="14.00" fill="#000000">Sequence</text>
<text text-anchor="middle" x="694.7229" y="-44.3833" font-family="Times,serif" font-size="14.00" fill="#000000"> &#160;&#160;Statement 1</text>
<text text-anchor="middle" x="694.7229" y="-29.3833" font-family="Times,serif" font-size="14.00" fill="#000000"> &#160;&#160;Statement 2</text>
</g>
<!-- R&#45;&gt;X -->
<g id="edge3" class="edge">
<title>R&#45;&gt;X</title>
<path fill="none" stroke="#000000" d="M694.7229,-131.9161C694.7229,-121.7796 694.7229,-108.651 694.7229,-95.8042"/>
<polygon fill="#000000" stroke="#000000" points="698.223,-95.6242 694.7229,-85.6242 691.223,-95.6242 698.223,-95.6242"/>
</g>
<!-- I -->
<g id="node5" class="node">
<title>I</title>
<ellipse fill="none" stroke="#000000" cx="939.7229" cy="-48.0833" rx="159.6125" ry="48.1667"/>
<text text-anchor="middle" x="939.7229" y="-66.8833" font-family="Times,serif" font-size="14.00" fill="#000000">Iteration</text>
<text text-anchor="middle" x="939.7229" y="-51.8833" font-family="Times,serif" font-size="14.00" fill="#000000"> &#160;&#160;for( i in range(10) ) #counted loop</text>
<text text-anchor="middle" x="939.7229" y="-36.8833" font-family="Times,serif" font-size="14.00" fill="#000000"> &#160;&#160;while(condition):</text>
<text text-anchor="middle" x="939.7229" y="-21.8833" font-family="Times,serif" font-size="14.00" fill="#000000"> &#160;&#160;for x in container:</text>
</g>
<!-- R&#45;&gt;I -->
<g id="edge4" class="edge">
<title>R&#45;&gt;I</title>
<path fill="none" stroke="#000000" d="M734.9053,-133.4239C762.5704,-121.8967 800.6607,-106.0258 836.4945,-91.0951"/>
<polygon fill="#000000" stroke="#000000" points="838.1533,-94.1956 846.0379,-87.1186 835.4609,-87.7341 838.1533,-94.1956"/>
</g>
<!-- S -->
<g id="node6" class="node">
<title>S</title>
<ellipse fill="none" stroke="#000000" cx="1191.7229" cy="-48.0833" rx="74.4932" ry="26.7407"/>
<text text-anchor="middle" x="1191.7229" y="-51.8833" font-family="Times,serif" font-size="14.00" fill="#000000">Selection</text>
<text text-anchor="middle" x="1191.7229" y="-36.8833" font-family="Times,serif" font-size="14.00" fill="#000000"> &#160;&#160;if .. elif .. else</text>
</g>
<!-- R&#45;&gt;S -->
<g id="edge5" class="edge">
<title>R&#45;&gt;S</title>
<path fill="none" stroke="#000000" d="M788.8008,-142.2242C892.2209,-132.7301 1051.3278,-115.6584 1108.7229,-96.1665 1122.2999,-91.5557 1136.1331,-84.6072 1148.5143,-77.4151"/>
<polygon fill="#000000" stroke="#000000" points="1150.481,-80.3166 1157.2487,-72.165 1146.8747,-74.317 1150.481,-80.3166"/>
</g>
</g>
</svg>
